<svg width="448" height="152" viewBox="0 0 448 152" fill="none" xmlns="http://www.w3.org/2000/svg">
<path d="M83.088 39.5199V124H50.832L30.608 85.5999L26 75.2319H25.744L26.256 92.6399V124H0.399994V39.5199H32.656L52.88 78.0479L57.488 88.2879H57.744L57.232 70.8799V39.5199H83.088Z" fill="white"/>
<path fill-rule="evenodd" clip-rule="evenodd" d="M146.46 62.6879C141.169 60.0426 134.94 58.7199 127.772 58.7199C120.689 58.7199 114.46 60.0426 109.084 62.6879C103.708 65.2479 99.5267 69.0026 96.54 73.9519C93.5533 78.9012 92.06 84.9172 92.06 91.9999C92.06 98.9972 93.5533 105.013 96.54 110.048C99.5267 114.997 103.708 118.795 109.084 121.44C114.46 124 120.689 125.28 127.772 125.28C134.94 125.28 141.169 124 146.46 121.44C151.836 118.795 156.017 114.997 159.004 110.048C161.991 105.013 163.484 98.9972 163.484 91.9999C163.484 84.9172 161.991 78.9012 159.004 73.9519C156.017 69.0026 151.836 65.2479 146.46 62.6879ZM124.444 79.7119C125.383 78.9439 126.492 78.5599 127.772 78.5599C129.137 78.5599 130.247 78.9439 131.1 79.7119C132.039 80.3946 132.721 81.7173 133.148 83.6799C133.66 85.6426 133.916 88.4159 133.916 91.9999C133.916 95.5839 133.66 98.3573 133.148 100.32C132.721 102.197 132.039 103.52 131.1 104.288C130.247 105.056 129.137 105.44 127.772 105.44C126.492 105.44 125.383 105.056 124.444 104.288C123.505 103.52 122.78 102.197 122.268 100.32C121.841 98.3573 121.628 95.5839 121.628 91.9999C121.628 88.4159 121.841 85.6426 122.268 83.6799C122.78 81.7173 123.505 80.3946 124.444 79.7119Z" fill="white"/>
<path d="M210.205 59.9999H240.669L220.061 124H183.453L162.845 59.9999H193.309L201.757 105.44L210.205 59.9999Z" fill="white"/>
<path d="M277.93 84.0639C277.93 82.1012 277.461 80.5652 276.522 79.4559C275.669 78.3466 274.303 77.7919 272.426 77.7919C270.634 77.7919 269.141 78.3039 267.946 79.3279C266.751 80.3519 266.069 82.3999 265.898 85.4719L241.066 81.8879C241.663 74.8052 244.735 69.1732 250.282 64.9919C255.829 60.8106 263.893 58.7199 274.474 58.7199C281.898 58.7199 287.999 59.7439 292.778 61.7919C297.642 63.8399 301.226 66.6986 303.53 70.3679C305.919 74.0372 307.114 78.3039 307.114 83.1679V103.008C307.114 106.507 308.778 108.256 312.106 108.256C313.045 108.256 313.77 108.128 314.282 107.872L313.002 122.976C309.845 124.512 306.047 125.28 301.61 125.28C297.599 125.28 294.015 124.725 290.858 123.616C287.786 122.421 285.354 120.672 283.562 118.368C281.855 115.979 281.002 112.949 281.002 109.28V108H283.818C283.733 111.243 282.666 114.187 280.618 116.832C278.655 119.392 276.01 121.44 272.682 122.976C269.354 124.512 265.557 125.28 261.29 125.28C256.767 125.28 252.927 124.597 249.77 123.232C246.698 121.867 244.351 119.904 242.73 117.344C241.109 114.784 240.298 111.755 240.298 108.256C240.298 103.563 241.791 99.7652 244.778 96.8639C247.765 93.8772 252.074 91.8293 257.706 90.7199L279.978 86.1119L279.85 96.4799L272.938 98.1439C271.146 98.5706 269.866 99.2959 269.098 100.32C268.33 101.259 267.946 102.453 267.946 103.904C267.946 105.269 268.373 106.379 269.226 107.232C270.079 108.085 271.274 108.512 272.81 108.512C273.493 108.512 274.133 108.384 274.73 108.128C275.413 107.872 275.967 107.488 276.394 106.976C276.906 106.464 277.29 105.867 277.546 105.184C277.802 104.416 277.93 103.563 277.93 102.624V84.0639Z" fill="white"/>
<path d="M336.959 97.632C341.994 97.632 345.876 98.8266 348.607 101.216C351.338 103.605 352.703 106.976 352.703 111.328C352.703 115.68 351.338 119.051 348.607 121.44C345.876 123.829 341.994 125.024 336.959 125.024C332.01 125.024 328.127 123.829 325.311 121.44C322.58 119.051 321.215 115.68 321.215 111.328C321.215 106.976 322.58 103.605 325.311 101.216C328.127 98.8266 332.01 97.632 336.959 97.632Z" fill="#4063D8"/>
<path d="M398.557 125.664V59.9999H369.117V123.104C369.117 126.347 368.392 128.608 366.941 129.888C365.49 131.253 363.528 131.936 361.053 131.936C359.602 131.936 358.365 131.808 357.341 131.552C356.232 131.296 355.25 130.955 354.397 130.528L350.813 147.552C353.458 148.917 356.36 149.899 359.517 150.496C362.674 151.179 366.258 151.52 370.269 151.52C376.925 151.52 382.301 150.624 386.397 148.832C390.578 147.04 393.65 144.224 395.613 140.384C397.576 136.629 398.557 131.723 398.557 125.664Z" fill="white"/>
<path d="M437.932 34.3999V98.5279C437.932 101.088 438.316 102.965 439.084 104.16C439.852 105.355 441.217 105.952 443.18 105.952C444.119 105.952 444.929 105.909 445.612 105.824C446.38 105.653 447.105 105.483 447.788 105.312L446.508 121.184C444.887 122.379 442.54 123.36 439.468 124.128C436.481 124.896 433.537 125.28 430.636 125.28C422.7 125.28 417.025 123.573 413.612 120.16C410.199 116.747 408.492 111.029 408.492 103.008V34.3999H437.932Z" fill="white"/>
<path d="M364 24.576C358.197 24.576 354.059 23.6373 351.584 21.76C349.195 19.8827 348 16.7253 348 12.288C348 7.76533 349.195 4.608 351.584 2.816C354.059 0.938667 358.197 0 364 0C369.803 0 373.899 0.938667 376.288 2.816C378.763 4.608 380 7.76533 380 12.288C380 16.7253 378.763 19.8827 376.288 21.76C373.899 23.6373 369.803 24.576 364 24.576Z" fill="#CB3C33"/>
<path d="M404.32 24.576C398.517 24.576 394.379 23.6373 391.904 21.76C389.515 19.8827 388.32 16.7253 388.32 12.288C388.32 7.76533 389.515 4.608 391.904 2.816C394.379 0.938667 398.517 0 404.32 0C410.123 0 414.219 0.938667 416.608 2.816C419.083 4.608 420.32 7.76533 420.32 12.288C420.32 16.7253 419.083 19.8827 416.608 21.76C414.219 23.6373 410.123 24.576 404.32 24.576Z" fill="#389826"/>
<path d="M384 52.576C378.197 52.576 374.059 51.6373 371.584 49.76C369.195 47.8827 368 44.7253 368 40.288C368 35.7653 369.195 32.608 371.584 30.816C374.059 28.9387 378.197 28 384 28C389.803 28 393.899 28.9387 396.288 30.816C398.763 32.608 400 35.7653 400 40.288C400 44.7253 398.763 47.8827 396.288 49.76C393.899 51.6373 389.803 52.576 384 52.576Z" fill="#9558B2"/>
</svg>
