<svg width="448" height="153" viewBox="0 0 448 153" fill="none" xmlns="http://www.w3.org/2000/svg">
<path d="M82.882 40.0399V124.52H50.626L30.402 86.1199L25.794 75.7519H25.538L26.05 93.1599V124.52H0.194V40.0399H32.45L52.674 78.5679L57.282 88.8079H57.538L57.026 71.3999V40.0399H82.882Z" fill="black"/>
<path fill-rule="evenodd" clip-rule="evenodd" d="M146.254 63.2079C140.963 60.5626 134.734 59.2399 127.566 59.2399C120.483 59.2399 114.254 60.5626 108.878 63.2079C103.502 65.7679 99.3207 69.5226 96.334 74.4719C93.3473 79.4213 91.854 85.4373 91.854 92.5199C91.854 99.5173 93.3473 105.533 96.334 110.568C99.3207 115.517 103.502 119.315 108.878 121.96C114.254 124.52 120.483 125.8 127.566 125.8C134.734 125.8 140.963 124.52 146.254 121.96C151.63 119.315 155.811 115.517 158.798 110.568C161.785 105.533 163.278 99.5173 163.278 92.5199C163.278 85.4373 161.785 79.4213 158.798 74.4719C155.811 69.5226 151.63 65.7679 146.254 63.2079ZM124.238 80.2319C125.177 79.4639 126.286 79.08 127.566 79.08C128.931 79.08 130.041 79.4639 130.894 80.2319C131.833 80.9146 132.515 82.2373 132.942 84.2C133.454 86.1626 133.71 88.936 133.71 92.52C133.71 96.104 133.454 98.8773 132.942 100.84C132.515 102.717 131.833 104.04 130.894 104.808C130.041 105.576 128.931 105.96 127.566 105.96C126.286 105.96 125.177 105.576 124.238 104.808C123.299 104.04 122.574 102.717 122.062 100.84C121.635 98.8773 121.422 96.104 121.422 92.52C121.422 88.936 121.635 86.1626 122.062 84.2C122.574 82.2373 123.299 80.9146 124.238 80.2319Z" fill="black"/>
<path d="M209.999 60.52H240.463L219.855 124.52H183.247L162.639 60.52H193.103L201.551 105.96L209.999 60.52Z" fill="black"/>
<path d="M277.724 84.5839C277.724 82.6213 277.255 81.0853 276.316 79.9759C275.463 78.8666 274.097 78.3119 272.22 78.3119C270.428 78.3119 268.935 78.8239 267.74 79.8479C266.545 80.8719 265.863 82.9199 265.692 85.9919L240.86 82.4079C241.457 75.3253 244.529 69.6933 250.076 65.5119C255.623 61.3306 263.687 59.2399 274.268 59.2399C281.692 59.2399 287.793 60.2639 292.572 62.3119C297.436 64.3599 301.02 67.2186 303.324 70.8879C305.713 74.5573 306.908 78.8239 306.908 83.6879V103.528C306.908 107.027 308.572 108.776 311.9 108.776C312.839 108.776 313.564 108.648 314.076 108.392L312.796 123.496C309.639 125.032 305.841 125.8 301.404 125.8C297.393 125.8 293.809 125.245 290.652 124.136C287.58 122.941 285.148 121.192 283.356 118.888C281.649 116.499 280.796 113.469 280.796 109.8V108.52H283.612C283.527 111.763 282.46 114.707 280.412 117.352C278.449 119.912 275.804 121.96 272.476 123.496C269.148 125.032 265.351 125.8 261.084 125.8C256.561 125.8 252.721 125.117 249.564 123.752C246.492 122.387 244.145 120.424 242.524 117.864C240.903 115.304 240.092 112.275 240.092 108.776C240.092 104.083 241.585 100.285 244.572 97.3839C247.559 94.3973 251.868 92.3493 257.5 91.2399L279.772 86.6319L279.644 96.9999L272.732 98.6639C270.94 99.0906 269.66 99.8159 268.892 100.84C268.124 101.779 267.74 102.973 267.74 104.424C267.74 105.789 268.167 106.899 269.02 107.752C269.873 108.605 271.068 109.032 272.604 109.032C273.287 109.032 273.927 108.904 274.524 108.648C275.207 108.392 275.761 108.008 276.188 107.496C276.7 106.984 277.084 106.387 277.34 105.704C277.596 104.936 277.724 104.083 277.724 103.144V84.5839Z" fill="black"/>
<path d="M336.753 98.152C341.788 98.152 345.67 99.3466 348.401 101.736C351.132 104.125 352.497 107.496 352.497 111.848C352.497 116.2 351.132 119.571 348.401 121.96C345.67 124.349 341.788 125.544 336.753 125.544C331.804 125.544 327.921 124.349 325.105 121.96C322.374 119.571 321.009 116.2 321.009 111.848C321.009 107.496 322.374 104.125 325.105 101.736C327.921 99.3466 331.804 98.152 336.753 98.152Z" fill="#365EE5"/>
<path d="M398.351 126.184V60.52H368.911V123.624C368.911 126.867 368.186 129.128 366.735 130.408C365.284 131.773 363.322 132.456 360.847 132.456C359.396 132.456 358.159 132.328 357.135 132.072C356.026 131.816 355.044 131.475 354.191 131.048L350.607 148.072C353.252 149.437 356.154 150.419 359.311 151.016C362.468 151.699 366.052 152.04 370.063 152.04C376.719 152.04 382.095 151.144 386.191 149.352C390.372 147.56 393.444 144.744 395.407 140.904C397.37 137.149 398.351 132.243 398.351 126.184Z" fill="black"/>
<path d="M437.726 34.9199V99.0479C437.726 101.608 438.11 103.485 438.878 104.68C439.646 105.875 441.011 106.472 442.974 106.472C443.913 106.472 444.723 106.429 445.406 106.344C446.174 106.173 446.899 106.003 447.582 105.832L446.302 121.704C444.681 122.899 442.334 123.88 439.262 124.648C436.275 125.416 433.331 125.8 430.43 125.8C422.494 125.8 416.819 124.093 413.406 120.68C409.993 117.267 408.286 111.549 408.286 103.528V34.9199H437.726Z" fill="black"/>
<path d="M363.794 25.096C357.991 25.096 353.853 24.1574 351.378 22.28C348.989 20.4027 347.794 17.2454 347.794 12.808C347.794 8.28535 348.989 5.12802 351.378 3.33602C353.853 1.45869 357.991 0.52002 363.794 0.52002C369.597 0.52002 373.693 1.45869 376.082 3.33602C378.557 5.12802 379.794 8.28535 379.794 12.808C379.794 17.2454 378.557 20.4027 376.082 22.28C373.693 24.1574 369.597 25.096 363.794 25.096Z" fill="#CB3C33"/>
<path d="M404.114 25.096C398.311 25.096 394.173 24.1574 391.698 22.28C389.309 20.4027 388.114 17.2454 388.114 12.808C388.114 8.28535 389.309 5.12802 391.698 3.33602C394.173 1.45869 398.311 0.52002 404.114 0.52002C409.917 0.52002 414.013 1.45869 416.402 3.33602C418.877 5.12802 420.114 8.28535 420.114 12.808C420.114 17.2454 418.877 20.4027 416.402 22.28C414.013 24.1574 409.917 25.096 404.114 25.096Z" fill="#389826"/>
<path d="M383.794 53.096C377.991 53.096 373.853 52.1574 371.378 50.28C368.989 48.4027 367.794 45.2454 367.794 40.808C367.794 36.2854 368.989 33.128 371.378 31.336C373.853 29.4587 377.991 28.52 383.794 28.52C389.597 28.52 393.693 29.4587 396.082 31.336C398.557 33.128 399.794 36.2854 399.794 40.808C399.794 45.2454 398.557 48.4027 396.082 50.28C393.693 52.1574 389.597 53.096 383.794 53.096Z" fill="#9558B2"/>
</svg>
